<svg width="16" height="16" viewBox="0 0 16 16" fill="none" xmlns="http://www.w3.org/2000/svg">
    <path d="M8 12.3758L7.64645 12.0223L5.8121 10.1879C5.81208 10.1879 5.81206 10.1879 5.81205 10.1879C5.75579 10.1316 5.67952 10.1001 5.6 10.1001C5.5205 10.1001 5.44426 10.1316 5.38801 10.1878C5.38797 10.1878 5.38794 10.1879 5.3879 10.1879M8 12.3758L5.3879 10.1879M8 12.3758L8.35355 12.0223L10.1841 10.1917C10.2405 10.1385 10.3152 10.1091 10.3928 10.1097C10.4714 10.1104 10.5467 10.142 10.6023 10.1976C10.6579 10.2532 10.6895 10.3285 10.6902 10.4071C10.6908 10.4847 10.6614 10.5595 10.6082 10.6158L8.2121 13.0119C8.21208 13.0119 8.21206 13.0119 8.21205 13.0119C8.15579 13.0682 8.07952 13.0997 8 13.0997C7.92048 13.0997 7.84421 13.0682 7.78795 13.0119C7.78794 13.0119 7.78792 13.0119 7.7879 13.0119L5.38801 10.612M8 12.3758L5.38801 10.612M5.3879 10.1879C5.33173 10.2442 5.30017 10.3204 5.30017 10.3999C5.30017 10.4794 5.33175 10.5557 5.38795 10.6119M5.3879 10.1879L5.38795 10.6119M5.38795 10.6119L5.38801 10.612M5.38795 10.6119L5.38801 10.612M8.21199 2.9878L8.21205 2.98786L10.6082 5.38404C10.6614 5.44035 10.6908 5.51512 10.6902 5.59268C10.6895 5.67134 10.6579 5.74658 10.6023 5.8022C10.5467 5.85783 10.4714 5.88938 10.3928 5.89006C10.3152 5.89073 10.2405 5.86135 10.1841 5.80814L8.35355 3.97755L8 3.624L7.64645 3.97755L5.81586 5.80814C5.75954 5.86135 5.68478 5.89073 5.60722 5.89006C5.52857 5.88938 5.45332 5.85783 5.3977 5.8022C5.34208 5.74658 5.31053 5.67134 5.30984 5.59268C5.30917 5.51512 5.33856 5.44036 5.39176 5.38405L7.78795 2.98786L7.78801 2.9878C7.84425 2.93154 7.92055 2.89992 8.00011 2.8999L8 2.3999L7.99989 2.8999C8.07945 2.89992 8.15575 2.93154 8.21199 2.9878Z" fill="#9CA3AF" stroke="#9CA3AF"/>
</svg>