<svg width="790" height="41" viewBox="0 0 790 41" fill="none" xmlns="http://www.w3.org/2000/svg">
    <line x1="1.33301" y1="35.865" x2="1.33301" y2="5.13506" stroke="#4E4E4E" stroke-width="2" stroke-linecap="round"/>
    <line x1="8.83154" y1="31.2095" x2="8.83154" y2="9.79037" stroke="#4E4E4E" stroke-width="2" stroke-linecap="round"/>
    <line x1="16.3296" y1="28.3254" x2="16.3296" y2="12.6745" stroke="#4E4E4E" stroke-width="2" stroke-linecap="round"/>
    <line x1="23.8281" y1="36.3953" x2="23.8281" y2="4.60483" stroke="#4E4E4E" stroke-width="2" stroke-linecap="round"/>
    <line x1="31.3267" y1="28.3523" x2="31.3267" y2="12.6478" stroke="#4E4E4E" stroke-width="2" stroke-linecap="round"/>
    <line x1="38.8247" y1="35.0166" x2="38.8247" y2="5.9833" stroke="#4E4E4E" stroke-width="2" stroke-linecap="round"/>
    <line x1="46.3232" y1="33.5317" x2="46.3232" y2="7.46818" stroke="#4E4E4E" stroke-width="2" stroke-linecap="round"/>
    <line x1="53.8223" y1="25.6313" x2="53.8223" y2="15.3688" stroke="#4E4E4E" stroke-width="2" stroke-linecap="round"/>
    <line x1="61.3198" y1="34.605" x2="61.3198" y2="6.39482" stroke="#4E4E4E" stroke-width="2" stroke-linecap="round"/>
    <line x1="68.8188" y1="30.4185" x2="68.8188" y2="10.5817" stroke="#4E4E4E" stroke-width="2" stroke-linecap="round"/>
    <line x1="76.3174" y1="29.0161" x2="76.3174" y2="11.9837" stroke="#4E4E4E" stroke-width="2" stroke-linecap="round"/>
    <line x1="83.8159" y1="26.5911" x2="83.8159" y2="14.4087" stroke="#4E4E4E" stroke-width="2" stroke-linecap="round"/>
    <line x1="91.314" y1="31.2429" x2="91.314" y2="9.75704" stroke="#4E4E4E" stroke-width="2" stroke-linecap="round"/>
    <line x1="98.8125" y1="38.8992" x2="98.8125" y2="2.10053" stroke="#4E4E4E" stroke-width="2" stroke-linecap="round"/>
    <line x1="106.311" y1="37.7314" x2="106.311" y2="3.26852" stroke="#4E4E4E" stroke-width="2" stroke-linecap="round"/>
    <line x1="113.809" y1="39.4978" x2="113.809" y2="1.50208" stroke="#4E4E4E" stroke-width="2" stroke-linecap="round"/>
    <line x1="121.308" y1="36.7834" x2="121.308" y2="4.21663" stroke="#4E4E4E" stroke-width="2" stroke-linecap="round"/>
    <line x1="128.806" y1="30.9507" x2="128.806" y2="10.0494" stroke="#4E4E4E" stroke-width="2" stroke-linecap="round"/>
    <line x1="136.304" y1="24.8318" x2="136.304" y2="16.1685" stroke="#4E4E4E" stroke-width="2" stroke-linecap="round"/>
    <line x1="143.803" y1="34.2832" x2="143.803" y2="6.71662" stroke="#4E4E4E" stroke-width="2" stroke-linecap="round"/>
    <line x1="151.301" y1="38.2869" x2="151.301" y2="2.71334" stroke="#4E4E4E" stroke-width="2" stroke-linecap="round"/>
    <line x1="158.799" y1="35.2654" x2="158.799" y2="5.73459" stroke="#4E4E4E" stroke-width="2" stroke-linecap="round"/>
    <line x1="166.298" y1="26.4883" x2="166.298" y2="14.5116" stroke="#4E4E4E" stroke-width="2" stroke-linecap="round"/>
    <line x1="173.797" y1="25.0408" x2="173.797" y2="15.9591" stroke="#4E4E4E" stroke-width="2" stroke-linecap="round"/>
    <line x1="181.295" y1="39.6895" x2="181.295" y2="1.31067" stroke="#4E4E4E" stroke-width="2" stroke-linecap="round"/>
    <line x1="188.793" y1="33.5322" x2="188.793" y2="7.46779" stroke="#4E4E4E" stroke-width="2" stroke-linecap="round"/>
    <line x1="196.292" y1="35.6096" x2="196.292" y2="5.39054" stroke="#4E4E4E" stroke-width="2" stroke-linecap="round"/>
    <line x1="203.791" y1="36.6848" x2="203.791" y2="4.31533" stroke="#4E4E4E" stroke-width="2" stroke-linecap="round"/>
    <line x1="211.289" y1="30.7168" x2="211.289" y2="10.2832" stroke="#4E4E4E" stroke-width="2" stroke-linecap="round"/>
    <line x1="218.787" y1="39.1296" x2="218.787" y2="1.87035" stroke="#4E4E4E" stroke-width="2" stroke-linecap="round"/>
    <line x1="226.286" y1="37.9792" x2="226.286" y2="3.0206" stroke="#4E4E4E" stroke-width="2" stroke-linecap="round"/>
    <line x1="233.784" y1="32.8044" x2="233.784" y2="8.19558" stroke="#4E4E4E" stroke-width="2" stroke-linecap="round"/>
    <line x1="241.282" y1="29.1262" x2="241.282" y2="11.8738" stroke="#4E4E4E" stroke-width="2" stroke-linecap="round"/>
    <line x1="248.781" y1="36.563" x2="248.781" y2="4.43707" stroke="#4E4E4E" stroke-width="2" stroke-linecap="round"/>
    <line x1="256.279" y1="27.2932" x2="256.279" y2="13.7068" stroke="#4E4E4E" stroke-width="2" stroke-linecap="round"/>
    <line x1="263.777" y1="37.2788" x2="263.777" y2="3.7212" stroke="#4E4E4E" stroke-width="2" stroke-linecap="round"/>
    <line x1="271.276" y1="28.2585" x2="271.276" y2="12.7415" stroke="#4E4E4E" stroke-width="2" stroke-linecap="round"/>
    <line x1="278.774" y1="38.6628" x2="278.774" y2="2.33689" stroke="#4E4E4E" stroke-width="2" stroke-linecap="round"/>
    <line x1="286.272" y1="36.855" x2="286.272" y2="4.14506" stroke="#4E4E4E" stroke-width="2" stroke-linecap="round"/>
    <line x1="293.771" y1="29.4961" x2="293.771" y2="11.5037" stroke="#4E4E4E" stroke-width="2" stroke-linecap="round"/>
    <line x1="301.27" y1="35.366" x2="301.27" y2="5.63429" stroke="#4E4E4E" stroke-width="2" stroke-linecap="round"/>
    <line x1="308.768" y1="29.9734" x2="308.768" y2="11.0266" stroke="#4E4E4E" stroke-width="2" stroke-linecap="round"/>
    <line x1="316.267" y1="39.7051" x2="316.267" y2="1.29493" stroke="#4E4E4E" stroke-width="2" stroke-linecap="round"/>
    <line x1="323.765" y1="24.8547" x2="323.765" y2="16.1451" stroke="#4E4E4E" stroke-width="2" stroke-linecap="round"/>
    <line x1="331.263" y1="39.6882" x2="331.263" y2="1.31147" stroke="#4E4E4E" stroke-width="2" stroke-linecap="round"/>
    <line x1="338.762" y1="36.7175" x2="338.762" y2="4.28234" stroke="#4E4E4E" stroke-width="2" stroke-linecap="round"/>
    <line x1="346.26" y1="34.7793" x2="346.26" y2="6.22082" stroke="#4E4E4E" stroke-width="2" stroke-linecap="round"/>
    <line x1="353.758" y1="24.696" x2="353.758" y2="16.3038" stroke="#4E4E4E" stroke-width="2" stroke-linecap="round"/>
    <line x1="361.257" y1="27.8406" x2="361.257" y2="13.1595" stroke="#4E4E4E" stroke-width="2" stroke-linecap="round"/>
    <line x1="368.755" y1="29.7373" x2="368.755" y2="11.2624" stroke="#4E4E4E" stroke-width="2" stroke-linecap="round"/>
    <line x1="376.253" y1="34.9102" x2="376.253" y2="6.08957" stroke="#4E4E4E" stroke-width="2" stroke-linecap="round"/>
    <line x1="383.752" y1="31.4299" x2="383.752" y2="9.57029" stroke="#4E4E4E" stroke-width="2" stroke-linecap="round"/>
    <line x1="391.251" y1="31.906" x2="391.251" y2="9.09385" stroke="#4E4E4E" stroke-width="2" stroke-linecap="round"/>
    <line x1="398.749" y1="32.0229" x2="398.749" y2="8.97676" stroke="#4E4E4E" stroke-width="2" stroke-linecap="round"/>
    <line x1="406.248" y1="38.8867" x2="406.248" y2="2.11328" stroke="#4E4E4E" stroke-width="2" stroke-linecap="round"/>
    <line x1="413.746" y1="36.1494" x2="413.746" y2="4.85031" stroke="#4E4E4E" stroke-width="2" stroke-linecap="round"/>
    <line x1="421.244" y1="37.9075" x2="421.244" y2="3.09224" stroke="#4E4E4E" stroke-width="2" stroke-linecap="round"/>
    <line x1="428.743" y1="32.1074" x2="428.743" y2="8.89264" stroke="#4E4E4E" stroke-width="2" stroke-linecap="round"/>
    <line x1="436.241" y1="32.1602" x2="436.241" y2="8.83998" stroke="#4E4E4E" stroke-width="2" stroke-linecap="round"/>
    <line x1="443.739" y1="33.0955" x2="443.739" y2="7.90458" stroke="#4E4E4E" stroke-width="2" stroke-linecap="round"/>
    <line x1="451.238" y1="40" x2="451.238" y2="1" stroke="#4E4E4E" stroke-width="2" stroke-linecap="round"/>
    <line x1="458.736" y1="39.5034" x2="458.736" y2="1.49677" stroke="#4E4E4E" stroke-width="2" stroke-linecap="round"/>
    <line x1="466.235" y1="35.3232" x2="466.235" y2="5.67671" stroke="#4E4E4E" stroke-width="2" stroke-linecap="round"/>
    <line x1="473.733" y1="25.2402" x2="473.733" y2="15.7596" stroke="#4E4E4E" stroke-width="2" stroke-linecap="round"/>
    <line x1="481.231" y1="35.1997" x2="481.231" y2="5.80034" stroke="#4E4E4E" stroke-width="2" stroke-linecap="round"/>
    <line x1="488.73" y1="39.2615" x2="488.73" y2="1.73838" stroke="#4E4E4E" stroke-width="2" stroke-linecap="round"/>
    <line x1="496.228" y1="36.0479" x2="496.228" y2="4.95232" stroke="#4E4E4E" stroke-width="2" stroke-linecap="round"/>
    <line x1="503.727" y1="30.3298" x2="503.727" y2="10.6702" stroke="#4E4E4E" stroke-width="2" stroke-linecap="round"/>
    <line x1="511.226" y1="37.3145" x2="511.226" y2="3.68546" stroke="#4E4E4E" stroke-width="2" stroke-linecap="round"/>
    <line x1="518.724" y1="33.6621" x2="518.724" y2="7.33773" stroke="#4E4E4E" stroke-width="2" stroke-linecap="round"/>
    <line x1="526.222" y1="26.8037" x2="526.222" y2="14.1961" stroke="#4E4E4E" stroke-width="2" stroke-linecap="round"/>
    <line x1="533.721" y1="29.4111" x2="533.721" y2="11.5887" stroke="#4E4E4E" stroke-width="2" stroke-linecap="round"/>
    <line x1="541.219" y1="37.3027" x2="541.219" y2="3.69725" stroke="#4E4E4E" stroke-width="2" stroke-linecap="round"/>
    <line x1="548.717" y1="39.8721" x2="548.717" y2="1.12806" stroke="#4E4E4E" stroke-width="2" stroke-linecap="round"/>
    <line x1="556.216" y1="30.5815" x2="556.216" y2="10.4183" stroke="#4E4E4E" stroke-width="2" stroke-linecap="round"/>
    <line x1="563.714" y1="30.5952" x2="563.714" y2="10.4049" stroke="#4E4E4E" stroke-width="2" stroke-linecap="round"/>
    <line x1="571.212" y1="33.4146" x2="571.212" y2="7.58544" stroke="#4E4E4E" stroke-width="2" stroke-linecap="round"/>
    <line x1="578.711" y1="37.0806" x2="578.711" y2="3.9193" stroke="#4E4E4E" stroke-width="2" stroke-linecap="round"/>
    <line x1="586.209" y1="37.8965" x2="586.209" y2="3.10338" stroke="#4E4E4E" stroke-width="2" stroke-linecap="round"/>
    <line x1="593.708" y1="35.4741" x2="593.708" y2="5.52562" stroke="#4E4E4E" stroke-width="2" stroke-linecap="round"/>
    <line x1="601.206" y1="34.0676" x2="601.206" y2="6.93262" stroke="#4E4E4E" stroke-width="2" stroke-linecap="round"/>
    <line x1="608.704" y1="31.093" x2="608.704" y2="9.90689" stroke="#4E4E4E" stroke-width="2" stroke-linecap="round"/>
    <line x1="616.203" y1="39.3677" x2="616.203" y2="1.63234" stroke="#4E4E4E" stroke-width="2" stroke-linecap="round"/>
    <line x1="623.701" y1="39.7222" x2="623.701" y2="1.27788" stroke="#4E4E4E" stroke-width="2" stroke-linecap="round"/>
    <line x1="631.2" y1="35.6912" x2="631.2" y2="5.30877" stroke="#4E4E4E" stroke-width="2" stroke-linecap="round"/>
    <line x1="638.698" y1="29.4966" x2="638.698" y2="11.5032" stroke="#4E4E4E" stroke-width="2" stroke-linecap="round"/>
    <line x1="646.197" y1="38.3672" x2="646.197" y2="2.63287" stroke="#4E4E4E" stroke-width="2" stroke-linecap="round"/>
    <line x1="653.695" y1="37.4661" x2="653.695" y2="3.53388" stroke="#4E4E4E" stroke-width="2" stroke-linecap="round"/>
    <line x1="661.193" y1="32.334" x2="661.193" y2="8.66608" stroke="#4E4E4E" stroke-width="2" stroke-linecap="round"/>
    <line x1="668.692" y1="31.6201" x2="668.692" y2="9.38007" stroke="#4E4E4E" stroke-width="2" stroke-linecap="round"/>
    <line x1="676.19" y1="36.0527" x2="676.19" y2="4.94713" stroke="#4E4E4E" stroke-width="2" stroke-linecap="round"/>
    <line x1="683.688" y1="25.0359" x2="683.688" y2="15.9639" stroke="#4E4E4E" stroke-width="2" stroke-linecap="round"/>
    <line x1="691.187" y1="34.3499" x2="691.187" y2="6.65006" stroke="#4E4E4E" stroke-width="2" stroke-linecap="round"/>
    <line x1="698.686" y1="26.4968" x2="698.686" y2="14.5032" stroke="#4E4E4E" stroke-width="2" stroke-linecap="round"/>
    <line x1="706.184" y1="25.0613" x2="706.184" y2="15.9388" stroke="#4E4E4E" stroke-width="2" stroke-linecap="round"/>
    <line x1="713.682" y1="29.2522" x2="713.682" y2="11.7479" stroke="#4E4E4E" stroke-width="2" stroke-linecap="round"/>
    <line x1="721.181" y1="39.9277" x2="721.181" y2="1.07219" stroke="#4E4E4E" stroke-width="2" stroke-linecap="round"/>
    <line x1="728.68" y1="37.3105" x2="728.68" y2="3.68924" stroke="#4E4E4E" stroke-width="2" stroke-linecap="round"/>
    <line x1="736.178" y1="29.0613" x2="736.178" y2="11.9389" stroke="#4E4E4E" stroke-width="2" stroke-linecap="round"/>
    <line x1="743.676" y1="24.8423" x2="743.676" y2="16.1578" stroke="#4E4E4E" stroke-width="2" stroke-linecap="round"/>
    <line x1="751.175" y1="34.5627" x2="751.175" y2="6.43703" stroke="#4E4E4E" stroke-width="2" stroke-linecap="round"/>
    <line x1="758.673" y1="31.6157" x2="758.673" y2="9.38403" stroke="#4E4E4E" stroke-width="2" stroke-linecap="round"/>
    <line x1="766.171" y1="29.0156" x2="766.171" y2="11.9841" stroke="#4E4E4E" stroke-width="2" stroke-linecap="round"/>
    <line x1="773.67" y1="39.8291" x2="773.67" y2="1.17089" stroke="#4E4E4E" stroke-width="2" stroke-linecap="round"/>
    <line x1="781.168" y1="37.582" x2="781.168" y2="3.41789" stroke="#4E4E4E" stroke-width="2" stroke-linecap="round"/>
    <line x1="788.667" y1="39.5508" x2="788.667" y2="1.44925" stroke="#4E4E4E" stroke-width="2" stroke-linecap="round"/>
</svg>