<svg width="20" height="21" viewBox="0 0 20 21" fill="none" xmlns="http://www.w3.org/2000/svg">
    <g clip-path="url(#clip0_69_5482)">
    <path d="M16.3188 0.5H8.95835V5.5C8.95835 6.603 8.02398 7.5 6.87502 7.5H1.66669V18.5C1.66669 19.603 2.56981 20.5 3.68127 20.5H16.3198C17.4302 20.5 18.3334 19.603 18.3334 18.5V2.5C18.3334 1.397 17.4302 0.5 16.3188 0.5ZM12.6042 6.5C13.4667 6.5 14.1667 7.172 14.1667 8C14.1667 8.828 13.4667 9.5 12.6042 9.5C11.7417 9.5 11.0417 8.828 11.0417 8C11.0417 7.172 11.7417 6.5 12.6042 6.5ZM14.9177 17.015C14.7292 17.316 14.3906 17.5 14.024 17.5H5.69065C5.33335 17.5 5.00106 17.324 4.8094 17.034C4.61773 16.744 4.59585 16.38 4.75002 16.07L7.4969 10.539C7.67502 10.181 8.03127 9.958 8.47294 9.97C8.88648 9.984 9.25315 10.231 9.40627 10.601L10.6375 13.582L11.2011 12.585C11.3844 12.262 11.6865 12.06 12.1209 12.063C12.5042 12.064 12.8552 12.268 13.0365 12.593L14.9448 16.031C15.1156 16.34 15.1052 16.713 14.9177 17.015Z" fill="#9CA3AF"/>
    <path d="M6.87502 5.5V0.63C6.37294 0.768 5.90731 1.014 5.52815 1.379L2.58231 4.207C2.20315 4.571 1.9469 5.018 1.8021 5.5H6.87502Z" fill="#9CA3AF"/>
    </g>
    <defs>
    <clipPath id="clip0_69_5482">
    <rect width="20" height="20" fill="white" transform="translate(0 0.5)"/>
    </clipPath>
    </defs>
</svg>