<svg width="1108" height="480" viewBox="0 0 1108 480" fill="none" xmlns="http://www.w3.org/2000/svg">
    <path d="M198.443 74.3211C198.443 74.3211 193.373 79.6678 184.525 88.307C175.568 96.8984 163.053 109.462 147.835 123.751C132.726 138.088 115.025 154.49 96.026 171.488C86.5256 179.841 76.8124 188.974 67.0992 198.107C57.2787 207.485 47.4537 215.987 37.4204 226.144C32.5652 231.003 27.817 235.617 23.8299 240.565C19.9485 244.977 16.1897 252.064 16.084 252.6C13.0796 258.854 17.8952 267.375 23.126 272.292C34.2413 282.705 45.0275 292.391 53.6414 301.415C71.085 319.265 81.8923 333.038 81.8923 333.038C81.8923 333.038 78.3053 331.463 72.1083 328.452C66.1256 324.952 56.9953 320.944 46.7706 314.999C41.6575 311.881 36.2182 308.62 30.3442 305.167C24.5774 301.471 18.3791 298.168 12.4961 292.964C9.44669 290.461 6.39415 287.373 3.87615 282.773C2.5628 280.449 1.46237 277.345 0.897857 273.02C0.669939 270.881 0.864896 266.598 1.38881 263.042C2.01843 258.949 2.44998 258.557 3.08712 255.924C8.42708 239.92 14.5699 232.423 20.2781 224.735C26.0964 217.387 31.3834 212.136 36.6703 206.884C46.8138 197.066 57.0705 188.172 67.1083 178.89C77.2534 169.364 87.0799 161.154 96.4762 153.629C115.374 138.043 133.087 123.975 148.21 112.266C163.332 100.556 175.865 91.4956 184.724 84.8997C193.471 77.6723 198.443 74.3211 198.443 74.3211Z" fill="url(#paint0_linear_0_1)"/>
    <path d="M269.011 47.6382C269.011 47.6382 264.049 52.7409 255.417 61.1836C246.783 69.3344 234.376 81.9453 219.482 95.7938C204.589 109.934 187.318 125.652 168.751 142.257C159.466 150.413 149.967 159.058 140.363 168.239C130.758 177.42 121.258 185.773 111.332 195.686C106.475 200.253 102.053 205.01 98.1733 209.715C94.0775 214.615 91.1745 219.457 90.5374 222.09C89.3688 226.819 89.9152 227.641 90.9145 232.157C92.1266 235.893 94.4197 238.938 96.7128 241.984C101.515 247.878 106.856 253.135 111.546 258.397C116.237 263.66 120.709 268.827 124.855 273.559C133.037 282.975 139.373 291.873 143.957 297.671C148.435 303.714 150.84 307.391 150.84 307.391C150.84 307.391 147.36 305.572 141.595 302.168C135.935 298.227 127.345 293.874 117.874 286.804C113.193 283.293 107.968 279.543 102.526 275.698C97.1891 271.317 91.3152 267.864 85.7553 262.22C83.029 259.276 80.0853 256.236 77.8889 250.904C75.5898 246.691 74.1196 234.978 77.9649 223.56C82.2315 209.706 89.1233 200.208 94.5114 193.545C100.114 186.394 105.508 180.898 110.579 175.843C120.506 166.221 130.654 157.279 140.585 148.241C150.514 138.912 160.126 131.19 169.414 123.618C187.989 108.472 205.27 94.7977 219.961 83.4808C234.759 71.9197 247.077 63.3478 255.611 56.9007C264.04 50.9896 269.011 47.6382 269.011 47.6382Z" fill="url(#paint1_linear_0_1)"/>
    <path d="M336.777 23.5035C336.777 23.5035 331.923 28.6539 323.398 36.8524C314.98 44.8067 302.788 56.9291 288.325 70.3846C273.755 84.0844 256.916 99.4093 238.78 115.621C229.821 123.629 220.21 131.642 211.039 140.722C201.757 149.462 192.368 158.447 182.871 167.383C178.016 172.242 173.701 176.755 169.93 181.507C166.05 186.211 163.04 191.297 162.617 193.441C162.187 194.126 162.407 194.805 162.302 195.341C162.193 195.294 162.093 196.997 161.977 195.49L162.097 197.873C162.117 201.668 162.662 202.198 162.781 204.289C163.778 208.221 165.639 211.66 167.716 214.901C177.215 227.226 186.058 238.68 193.484 248.638C201.018 258.644 206.706 268.131 211.075 274.126C215.228 280.317 217.31 284.435 217.31 284.435C217.31 284.435 204.471 276.177 186.177 261.74C181.711 258.032 176.918 253.889 171.799 249.604C166.678 245.026 161.451 240.692 156.214 234.607C153.595 231.419 151.081 227.695 149.209 222.213C148.326 219.204 147.435 214.736 147.422 212.109L147.301 209.726C147.393 206.563 147.61 206.366 147.816 204.418C148.343 201.446 148.437 198.575 149.722 195.353C153.881 181.743 160.773 172.245 165.943 165.486C171.439 158.579 176.831 152.791 181.471 148.129C191.293 139.044 201.33 129.762 211.045 120.921C220.973 111.299 230.049 104.799 239.228 97.1782C257.264 82.67 274.222 69.4362 288.59 58.56C303.064 47.4396 315.168 39.0642 323.486 32.8135C332.022 26.6583 336.777 23.5035 336.777 23.5035Z" fill="url(#paint2_linear_0_1)"/>
    <path d="M401.842 1.97311C401.842 1.97311 397.096 6.87927 388.786 14.8814C380.584 22.6392 368.608 34.5651 354.468 47.58C340.221 60.8392 323.706 75.7237 305.893 91.4949C297.149 99.3061 287.752 106.831 278.797 115.714C269.731 124.258 260.559 133.046 251.386 141.834C242.212 150.33 233.27 161.841 231.672 167.547C230.604 170.572 230.939 172.467 231.947 178.734C232.951 184.126 234.152 185.818 235.908 189.793C239.522 196.621 244.001 202.956 248.043 208.808C251.979 214.904 255.804 220.661 259.193 225.935C266.08 236.53 271.337 246.41 275.058 252.994C278.888 259.626 280.753 263.94 280.753 263.94C280.753 263.94 268.669 254.85 251.669 238.941C247.527 234.793 242.949 230.454 238.262 225.775C233.573 220.804 228.561 216.274 223.969 209.016C221.783 205.727 218.934 200.108 217.934 195.3C217.048 191.707 214.398 182.681 218.777 169.458C222.723 156.629 229.182 147.232 234.351 140.181C239.845 132.982 244.805 127.587 249.769 122.776C259.591 113.691 269.197 104.802 278.804 95.9129C288.515 86.4878 297.377 80.4756 306.34 73.0517C324.053 58.9842 340.58 46.1434 354.733 35.7555C368.884 25.0758 380.556 17.0932 388.875 11.1345C397.087 5.12798 401.842 1.97311 401.842 1.97311Z" fill="url(#paint3_linear_0_1)"/>
    <path d="M464.321 -17.2015C464.321 -17.2015 459.682 -12.5395 451.481 -4.48968C443.279 3.26821 431.626 14.7535 417.702 27.572C403.778 40.3905 387.371 55.3224 370.096 70.1646C361.459 77.7316 352.389 85.3999 343.538 93.4554C334.576 101.171 325.621 110.054 316.776 119.277C314.51 121.486 312.675 123.302 310.195 126C308.146 128.304 306.421 130.168 304.698 132.615C301.143 137.17 298.671 141.619 297.818 144.448C295.998 148.891 298.67 162.296 301.192 167.772C308.098 182.162 316.295 194.498 322.211 206.123C328.451 217.308 333.059 227.777 336.565 234.558C339.963 241.583 341.72 245.849 341.72 245.849C341.72 245.849 338.779 243.394 334.092 238.715C329.512 233.792 322.43 227.48 314.684 218.546C310.758 214.201 306.719 209.225 302.355 204.105C297.991 198.986 293.408 193.479 289.249 186.12C287.491 181.854 284.646 176.818 284.186 171.665L283.407 167.829L283.072 165.934C282.734 163.456 282.949 163.259 282.942 161.8C282.704 157.618 283.543 152.161 285.355 145.967C289.087 133.626 295.328 124.133 300.389 117.035C302.973 113.51 305.884 110.128 308.363 107.139C310.411 104.834 313.215 101.696 315.589 99.5349C325.3 89.8179 334.796 80.5894 344.191 72.7726C353.582 64.3719 362.55 57.8236 371.19 50.8404C388.472 37.4577 404.567 25.0097 418.504 14.8183C432.333 4.57918 443.897 -3.15922 451.999 -9.21342C459.673 -14.2909 464.321 -17.2015 464.321 -17.2015Z" fill="url(#paint4_linear_0_1)"/>
    <path d="M524.097 -33.7733C524.097 -33.7733 519.458 -29.1113 511.58 -21.5021C503.594 -13.9407 492.156 -2.65195 478.447 9.67815C464.739 22.3002 448.655 36.7914 431.594 51.1452C423.173 58.5157 414.318 65.6956 405.575 73.7987L392.406 85.7836L379.461 99.0313C370.72 107.426 362.857 117.954 361.154 124.197C359.12 129.42 361.356 142.342 363.664 148.306C369.598 163.435 377.04 176.604 382.418 188.866C388.118 200.688 392.079 211.747 395.152 218.921C398.119 226.339 399.66 230.801 399.66 230.801C399.66 230.801 396.935 228.149 392.571 223.03C388.314 217.666 381.771 210.717 374.673 201.193C367.573 191.378 358.955 181.479 351.286 166.463C349.636 161.953 347.44 156.62 346.872 151.711L346.202 147.922L345.98 146.951C345.977 146.367 345.983 147.535 345.757 145.688L345.752 144.812L345.736 141.601C345.715 137.515 346.554 132.059 348.044 126.597C351.453 114.696 357.475 104.816 362.536 97.7179C368.028 90.2267 372.88 84.7845 377.519 80.1225L391.762 65.9876L405.689 53.753C414.972 45.3047 423.725 39.2449 432.257 32.5059C449.326 19.6116 464.989 7.55633 478.603 -2.1944C492.216 -12.237 503.564 -19.7786 511.452 -25.3445C519.557 -30.8149 524.097 -33.7733 524.097 -33.7733Z" fill="url(#paint5_linear_0_1)"/>
    <path d="M581.391 -47.936C581.391 -47.936 576.861 -43.2263 568.981 -35.9091C561.102 -28.5919 549.881 -17.4996 536.387 -5.36597C523.003 6.81535 507.134 21.1102 490.396 35.0233C482.083 42.1496 473.336 49.3771 464.807 56.9918L451.962 68.5359L439.232 81.5873C430.707 89.7858 423.492 99.7245 421.683 106.503C421.259 108.355 420.726 110.16 420.844 111.959L420.64 114.491L421.094 118.476C421.45 124.457 422.66 127.609 423.44 131.738C428.511 147.652 435.305 161.411 439.926 174.215C444.979 186.626 448.399 198.03 451.15 205.645C453.684 213.456 455.01 218.115 455.01 218.115C455.01 218.115 452.501 215.266 448.459 209.706C444.525 203.902 438.414 196.559 431.855 186.399C425.403 175.994 417.324 165.458 410.624 149.12C409.081 144.366 407.427 138.98 406.859 134.071L406.298 130.329C405.958 127.559 406.168 126.195 406.156 123.86C406.136 120.065 407.192 114.412 408.467 109.439C411.555 98.2708 417.25 87.956 422.31 80.8578C427.801 73.0747 432.544 67.5846 437.292 62.9703L451.319 49.0321L465.03 36.9938C474.098 29.0338 482.743 22.9264 491.168 16.4315C507.914 3.97789 523.254 -7.63661 536.652 -17.1908C549.942 -26.7928 561.074 -34.1381 568.855 -39.4597C576.959 -45.222 581.391 -47.936 581.391 -47.936Z" fill="url(#paint6_linear_0_1)"/>
    <path d="M636.206 -59.6998C636.206 -59.6998 631.783 -55.2341 624.013 -47.8691C616.241 -40.7961 605.126 -29.948 591.956 -18.255C578.787 -6.27008 563.133 7.53635 546.719 21.0088C538.512 27.891 529.981 34.922 521.669 42.3403L509.039 53.6881L496.634 66.5907C488.001 75.0335 481.866 83.9898 479.627 91.4529C477.707 97.5997 478.858 110.628 480.52 117.474C484.727 134.174 490.874 148.522 494.847 161.916C499.252 174.916 502.241 186.713 504.667 194.476C506.985 202.484 508.095 207.339 508.095 207.339C508.095 207.339 505.802 204.294 502.084 198.294C498.474 192.34 492.901 184.069 486.989 173.319C481.185 162.325 473.752 150.908 467.916 133.784C466.698 128.881 465.042 123.203 464.906 117.901L464.56 113.963C464.554 112.796 464.45 113.624 464.437 110.996L464.637 107.881C464.725 103.842 465.676 99.0172 466.951 93.7518C473.236 71.7554 486.602 56.0713 495.125 47.2889L509.042 33.3028L522.646 21.5087C531.606 13.501 540.036 7.88196 548.461 1.38709C564.883 -10.6259 580.116 -21.9962 593.298 -31.354C606.481 -40.7118 617.29 -47.6165 624.962 -52.9859C631.881 -57.2298 636.206 -59.6998 636.206 -59.6998Z" fill="url(#paint7_linear_0_1)"/>
    <path d="M688.647 -69.3025C688.647 -69.3025 684.223 -64.8371 676.56 -57.7163C669.004 -50.8397 657.997 -40.2358 644.934 -28.787C631.872 -17.0464 616.649 -3.92469 600.344 9.88738C592.354 16.5731 583.391 23.997 575.51 31.0223C571.3 34.7076 566.872 38.2974 562.771 42.3223L550.797 54.5401C542.38 62.7864 536.894 71.4453 534.657 79.2003C534.341 81.1004 533.701 83.1492 533.604 85.4367L533.396 87.0928C533.396 87.0928 533.295 88.5046 533.287 87.0451L533.293 88.2127L533.423 92.347C533.346 98.4291 534.232 102.022 534.688 106.299C536.574 114.7 538.245 123.297 540.67 130.768C542.878 138.436 544.977 145.764 546.747 152.658C550.504 166.248 553.061 178.437 555.055 186.594C556.942 194.994 557.836 200.046 557.836 200.046C557.836 200.046 555.65 196.757 552.256 190.607C548.97 184.214 543.828 175.549 538.565 164.21C535.932 158.395 532.973 152.436 529.903 145.846C526.725 139.5 523.973 131.593 521.648 122.418C520.646 117.319 519.423 111.539 519.288 106.238L518.942 102.3L518.829 101.376C518.818 99.3331 518.93 99.9645 518.926 99.0888L519.126 95.9733C519.216 92.2264 520.274 87.1574 521.443 82.4281C526.974 61.5572 540.334 44.4135 548.857 35.9231L562.884 21.9848C567.417 17.8589 571.629 14.4655 575.948 10.8279C585.126 2.91567 593.015 -2.35816 601.332 -8.90074C617.644 -21.2533 632.771 -32.0876 645.63 -41.0047C658.597 -50.166 669.299 -56.8263 676.864 -61.9515C684.321 -66.8325 688.647 -69.3025 688.647 -69.3025Z" fill="url(#paint8_linear_0_1)"/>
    <path d="M738.603 -76.4953C738.603 -76.4953 734.287 -72.274 726.732 -65.1055C719.176 -58.229 708.384 -48.1135 695.537 -36.8612C682.582 -25.3647 667.682 -12.6838 651.593 0.931793C643.602 7.6175 635.504 14.5476 627.189 21.382L614.449 32.3901L602.907 44.5068C594.923 52.3601 589.544 60.7748 587.418 69.1613C586.886 71.2579 586.355 73.3545 586.258 75.642C586.154 76.47 585.947 78.4178 585.947 78.4178L585.861 82.7486C585.568 89.0272 586.238 92.8164 586.694 97.0938C588.149 105.887 589.496 114.633 591.597 122.545C593.589 130.409 595.256 138.131 596.811 145.221C599.92 159.4 602.046 171.983 603.715 180.288C605.277 188.837 605.955 194.086 605.955 194.086C605.955 194.086 603.985 190.6 600.915 184.009C597.951 177.175 593.35 168.166 588.516 156.142C586.1 150.13 583.464 143.73 580.825 136.747C578.079 130.008 575.542 121.613 573.542 112.289C572.647 106.945 571.857 101.066 571.83 95.8113L571.7 91.6771C571.685 88.7581 571.897 87.6859 571.993 85.3984C572.298 81.4549 573.142 76.8743 574.313 72.4368C579.2 52.7392 592.12 34.529 600.968 25.8898L614.993 11.6597L627.734 0.943311C637.02 -6.92124 644.694 -11.9985 652.795 -18.3446C668.784 -30.2565 683.804 -40.8466 696.556 -49.5195C709.415 -58.4366 719.901 -64.9007 727.359 -69.7817C734.385 -74.2697 738.603 -76.4953 738.603 -76.4953Z" fill="url(#paint9_linear_0_1)"/>
    <path d="M786.296 -81.4807C786.296 -81.4807 781.98 -77.2594 774.533 -70.3351C767.084 -63.7027 756.4 -53.5395 743.66 -42.5313C730.812 -31.279 716.126 -19.0865 700.145 -5.71505C692.37 0.774197 684.27 7.41224 676.064 14.2944L663.432 25.3503L652.107 37.2706L649.302 40.1167L649.086 40.3132C649.409 39.8725 648.116 41.6351 649.948 39.2353L649.625 39.6759L648.871 40.8015L647.363 42.7605C645.749 45.2557 642.514 48.7867 642.088 50.3473C641.231 52.3008 640.262 53.6228 639.404 55.5763C638.657 57.8694 637.908 59.8706 637.052 62.116L635.894 68.8886L635.469 70.7411C635.465 69.8654 635.367 71.8609 635.368 72.1528L635.174 76.4359C634.665 82.9111 635.332 86.1163 635.357 91.0786C636.489 100.313 637.403 109.159 639.288 117.268C640.849 125.526 642.299 133.443 643.638 140.73C646.316 155.302 647.792 168.182 649.139 176.928C650.378 185.918 650.838 191.071 650.838 191.071C650.838 191.071 649.084 187.389 646.337 180.358C643.698 173.375 639.527 163.68 635.232 151.019C633.032 144.811 630.719 137.971 628.405 130.839C625.875 123.903 623.876 114.871 622.308 105.155C621.846 99.7095 620.946 93.4898 621.244 88.0868L621.223 84.0002C621.325 82.8803 621.111 83.3687 621.316 81.129L621.734 78.1089C622.364 74.0167 622.994 69.9245 623.839 65.6358C625.334 61.0496 626.936 56.2191 628.648 51.7283C630.576 47.041 633.37 42.1517 635.949 37.4588C638.742 32.2776 640.254 31.1942 642.298 28.0141L643.807 26.055L644.56 24.9294L644.883 24.4888C646.714 22.089 645.422 23.8518 645.961 23.2146L646.068 22.9704L646.284 22.7738L649.735 19.0464L663.76 4.81627L676.393 -5.94761C685.571 -13.8599 693.137 -18.6933 701.24 -24.7475C717.013 -36.4629 731.818 -46.5646 744.463 -54.9933C757 -63.4697 767.487 -69.6418 774.836 -74.5705C782.078 -79.255 786.296 -81.4807 786.296 -81.4807Z" fill="url(#paint10_linear_0_1)"/>
    <path d="M831.61 -84.2999C831.61 -84.2999 827.293 -80.0784 819.953 -73.3983C812.612 -67.0102 802.035 -57.0911 789.402 -46.3272C776.662 -35.319 762.192 -23.323 746.425 -10.4399C738.757 -4.19488 730.008 2.74073 722.667 9.12893C718.565 12.8619 714.136 16.1599 710.36 20.036L699.359 31.8075L697.956 33.2305L697.309 33.8199L696.985 34.2607L696.77 34.457C695.908 35.5348 697.955 32.9387 697.632 33.3794L694.617 37.5893C693.003 40.0845 689.876 43.6633 689.559 45.2715C688.811 47.2727 687.841 48.5947 686.984 50.5482C686.236 52.8413 685.489 55.1343 684.633 57.3797C684.103 59.7683 683.898 62.0081 683.368 64.3966L682.944 66.249L682.838 66.785C682.944 66.2489 682.737 68.1968 682.833 65.9093L682.835 66.2013L682.732 67.3213L682.537 71.6043C682.35 77.3469 682.27 82.8451 682.081 88.2958C682.43 92.8174 682.887 97.3868 683.234 101.617L683.701 107.937L684.602 114.449C685.947 122.903 687.073 130.969 687.98 138.648C690.01 153.81 691.054 167.083 692.185 176.026C693.099 185.164 693.453 190.562 693.453 190.562C693.453 190.562 691.806 186.635 689.383 179.456C687.067 172.032 683.328 161.944 679.574 148.938C677.589 142.533 675.601 135.544 673.608 127.68C671.295 120.84 669.937 109.759 668.693 99.8935C668.557 94.5916 668.53 89.3373 668.393 83.7435L668.372 79.6569L668.259 78.7335L668.257 78.4416C668.461 75.9099 668.253 77.5658 668.359 77.0297L668.463 76.2018L668.881 73.1817C669.619 69.1372 670.142 65.2893 671.096 61.0483C672.483 56.7063 673.978 52.1201 675.581 47.5816C677.402 43.1385 680.195 37.9572 682.558 33.4608C685.349 27.9876 686.646 27.1007 688.906 23.7242L691.812 19.4664C691.596 19.6629 693.751 16.8225 692.997 17.948L693.105 17.7038L693.32 17.5072L693.752 17.1144L694.723 16.0842L696.448 14.2206L710.472 -0.301514C714.897 -4.47516 718.894 -7.38028 723.105 -11.0656C732.282 -18.9778 739.634 -23.3227 747.735 -29.6688C763.401 -41.1401 778.099 -50.9973 790.421 -58.9854C802.85 -67.2177 813.122 -73.1935 820.473 -77.8303C827.607 -82.2706 831.61 -84.2999 831.61 -84.2999Z" fill="url(#paint11_linear_0_1)"/>
    <path d="M874.769 -85.1598C874.769 -85.1598 870.56 -81.1826 863.22 -74.5025C855.878 -68.1143 845.408 -58.4394 832.883 -47.9196C820.25 -37.1557 805.887 -25.4038 790.227 -12.7649C782.559 -6.51988 774.567 -0.125917 766.467 6.51207C758.261 13.3943 750.705 20.2709 743.7 28.8455L741.005 32.031L740.25 32.8646C740.681 32.1797 739.174 34.4308 741.327 31.2984L741.22 31.5427L741.112 31.7869L740.789 32.2275L739.283 34.4785C737.346 37.4144 735.409 40.3503 733.688 43.0897C733.155 44.8944 732.404 46.6037 731.545 48.2653C730.686 49.9269 730.159 52.8991 729.412 55.1922C726.968 64.8951 725.615 75.9508 725.991 85.7266C726.256 95.1628 726.526 105.475 727.652 113.541C728.781 122.192 729.475 130.651 730.167 138.527C731.656 154.034 732.378 167.748 733.184 176.839C733.774 186.126 733.911 191.72 733.911 191.72C733.911 191.72 732.48 187.597 730.271 179.929C728.279 172.064 724.863 161.536 721.649 148.185C719.987 141.339 718.215 134.154 716.547 126.141C714.553 117.985 713.422 109.042 712.716 98.2477C712.011 87.7449 712.054 74.949 716.198 58.4201C717.586 54.0781 718.217 50.2779 720.252 45.3464C722.396 40.4627 724.755 35.3825 727.117 30.5942C729.052 27.3664 730.882 24.6748 732.71 21.6912L734.108 19.3925L734.431 18.9518L734.538 18.7075L735.831 16.945L736.693 15.8672L740.249 11.6037C749.519 0.528304 758.805 -7.33635 767.013 -13.9266C775.869 -21.1063 783.435 -25.9396 791.322 -31.7973C806.88 -43.0244 821.471 -52.6376 833.686 -60.3816C846.008 -68.3696 856.173 -74.101 863.416 -78.4936C870.659 -82.8862 874.769 -85.1598 874.769 -85.1598Z" fill="url(#paint12_linear_0_1)"/>
    <path d="M915.769 -83.7637C915.769 -83.7637 911.56 -79.7864 904.327 -73.3505C897.092 -67.2065 886.623 -57.5316 874.096 -47.3038C861.57 -36.784 847.205 -25.3239 831.761 -12.8816C824.094 -6.63651 815.667 -0.433595 808.216 5.90689C800.334 12.6403 792.67 19.4691 785.882 28.1392L784.588 29.6099L784.265 30.0505C783.296 31.3725 785.558 28.2879 785.235 28.7286L785.127 28.9728L785.02 29.217L784.267 30.3424L781.361 34.6004C779.64 37.3398 776.946 40.8173 776.737 42.1814C775.988 44.1826 775.127 45.5522 774.163 47.7499C773.417 50.3349 772.669 52.628 771.815 55.1653C769.265 65.4042 767.803 76.4122 767.746 86.2891C767.798 96.5055 767.522 105.995 768.435 114.842C769.132 123.885 769.611 132.541 770.193 140.369C771.251 156.269 771.432 170.328 771.806 179.812C772.073 189.54 772.102 195.086 772.102 195.086C772.102 195.086 770.887 190.767 768.894 182.902C767.117 174.841 764.133 163.92 761.565 149.688C760.119 142.645 758.67 135.02 757.218 126.81C755.552 119.089 754.738 108.538 754.467 97.9344C754.409 86.8423 754.669 74.1418 758.708 58.149L762.656 45.6112C764.368 41.1205 766.836 36.0881 769.09 31.544C771.557 26.2196 773.283 24.3559 775.111 21.3723L777.909 17.0667L778.662 15.9413L778.769 15.697L780.062 13.9344L780.493 13.5415L782.217 11.386C791.592 -0.225534 800.664 -7.60185 809.086 -14.6805C817.834 -21.9079 825.293 -26.4969 833.072 -32.1105C848.524 -43.0934 862.9 -52.2183 875.115 -59.9622C887.33 -67.7061 897.387 -73.1932 904.63 -77.5858C911.767 -81.7343 915.769 -83.7637 915.769 -83.7637Z" fill="url(#paint13_linear_0_1)"/>
    <path d="M954.612 -80.4057C954.612 -80.4057 950.403 -76.4286 943.169 -70.2846C935.934 -64.1406 925.57 -55.0018 913.259 -44.9704C900.84 -34.6949 886.583 -23.479 871.137 -11.3286C867.248 -8.37586 863.361 -5.13128 859.472 -2.17857L853.856 2.34588L847.808 7.26337C840.035 14.0445 832.479 20.921 825.8 29.6388C824.938 30.7165 817.4 41.0959 817.088 43.5799C815.368 46.6112 813.66 51.9777 811.951 57.0522C809.294 67.5354 807.724 78.4956 807.127 89.0096C806.855 99.3749 806.363 109.061 806.737 118.545C807.003 127.981 807.049 137.03 807.2 145.251C807.395 161.937 807.897 175.263 808.055 184.944C808.214 194.624 808.135 200.414 808.135 200.414C808.135 200.414 806.92 196.095 805.143 188.034C803.691 179.824 800.274 169.004 798.569 153.986C797.555 146.55 796.538 138.532 795.517 129.929C794.39 121.571 793.794 111.116 793.738 100.315C794.005 89.0744 794.699 76.2729 798.63 60.5243C801.191 52.3286 803.535 44.3294 808.582 34.604C811.049 29.2796 812.986 26.3438 814.709 23.8963L817.506 19.5909L818.904 17.292L819.011 17.048L820.088 15.4818L820.195 15.2376L820.627 14.8445L821.489 13.7669C830.862 1.86345 839.933 -5.80461 848.355 -12.8833L854.403 -17.8008L860.778 -22.2832C864.669 -24.944 868.559 -27.6048 872.449 -30.2656C887.794 -41.0043 902.063 -49.885 914.171 -57.3847C926.278 -64.8844 936.445 -70.3239 943.472 -74.52C950.61 -78.3765 954.612 -80.4057 954.612 -80.4057Z" fill="url(#paint14_linear_0_1)"/>
    <path d="M991.296 -74.7858C991.296 -74.7858 987.194 -71.0529 979.96 -64.9089C972.724 -59.0568 962.36 -49.9179 950.156 -40.1307C943.999 -35.261 937.302 -30.0461 930.282 -24.3905C923.369 -18.979 915.916 -13.2222 908.247 -7.269C900.687 -1.26812 892.258 4.64285 885.025 11.0788C877.361 17.9076 869.803 24.4922 863.452 33.645L862.267 35.1635L861.944 35.6043C861.621 36.0449 863.774 32.9126 862.804 34.2346L862.697 34.4786L861.944 35.6043L859.255 39.9575C857.534 42.6969 855.167 46.3176 854.85 47.9258C854.101 49.927 853.133 51.5409 852.17 54.0305L849.608 61.9342C846.843 72.6615 844.84 83.7229 844.027 94.4334C843.429 104.656 842.619 115.658 842.665 124.707C842.715 134.339 842.545 143.585 842.264 152.199C841.811 169.474 842.098 182.997 842.04 192.874C841.983 202.751 841.688 208.737 841.688 208.737C841.688 208.737 840.58 204.174 839.128 195.964C837.999 187.314 834.797 176.297 833.632 160.641C832.834 153.01 832.032 144.795 831.335 135.751C830.42 126.613 830.26 116.64 830.635 105.155C831.119 93.7179 832.352 80.5712 836.394 65.1623L840.128 53.1128C841.624 48.8185 843.985 44.0302 845.914 39.6348C848.165 34.5069 849.781 32.3037 851.716 29.0759L854.405 24.7226L855.05 23.5495L855.157 23.3053L856.233 21.7391L856.34 21.4949L856.771 20.8101L858.495 18.6545C867.757 6.11954 877.151 -1.69723 885.465 -8.82361C894.427 -16.5394 901.673 -20.3484 909.452 -25.9619C924.689 -36.4565 939.067 -45.2894 951.069 -52.253C963.178 -59.4608 973.128 -64.7039 980.157 -68.6081C987.292 -73.0485 991.296 -74.7858 991.296 -74.7858Z" fill="url(#paint15_linear_0_1)"/>
    <path d="M1025.93 -67.4437C1025.93 -67.4437 1021.83 -63.7107 1014.48 -57.6144C1007.25 -51.7623 996.99 -42.8677 984.675 -33.4201C972.469 -23.9249 958.211 -13.0009 942.872 -1.09462C935.528 4.70977 926.775 10.7695 919.758 17.009C911.984 23.7901 904.753 30.5179 898.51 39.7184L897.325 41.2369L896.679 42.1182L896.356 42.559C898.077 39.8196 896.786 41.874 897.217 41.1891L897.109 41.4334L894.529 45.8344C893.026 48.6692 890.334 52.4387 890.017 54.0469C889.161 56.2923 888.302 57.9539 887.446 60.1993L884.884 68.103C881.903 79.0268 879.793 90.3324 878.656 101.192C877.736 112.146 876.703 122.178 876.537 132.007C876.262 141.788 875.877 151.23 875.38 160.04C874.386 177.661 874.457 191.38 874.075 201.406C873.801 211.479 873.398 217.418 873.398 217.418C873.398 217.418 872.399 212.902 871.161 204.204C870.248 195.357 867.585 183.704 866.743 167.607C866.161 159.779 865.682 151.123 865.309 141.931C864.614 133.18 864.773 121.891 865.473 110.549C866.281 98.9632 867.731 85.6201 871.99 70.3065L875.725 58.5491C877.33 54.3025 879.366 49.6629 881.512 45.0711C883.654 39.8954 885.164 38.2282 886.882 34.9051L889.569 30.26L889.676 30.0158L890.644 28.4018L890.751 28.1576L891.181 27.4728L892.043 26.3949L893.766 23.9477C903.025 10.8289 912.634 2.52349 920.948 -4.60289C930.018 -12.271 937.156 -16.1274 944.935 -21.7409C952.391 -26.9138 960.174 -31.9435 966.985 -35.9432C973.797 -39.9428 980.393 -43.7461 986.446 -47.4959C998.448 -54.4595 1008.4 -59.4106 1015.43 -63.3149C1022.03 -65.6585 1025.93 -67.4437 1025.93 -67.4437Z" fill="url(#paint16_linear_0_1)"/>
    <path d="M1058.62 -58.044C1058.62 -58.044 1054.41 -54.3587 1047.28 -48.4589C1040.15 -42.851 1029.79 -34.0041 1017.58 -24.8007C1011.42 -20.2228 1004.83 -15.2521 997.81 -9.8884C990.787 -4.81656 983.767 0.839127 975.989 6.74457C972.1 9.69729 968.212 12.6499 964.323 15.6026L958.921 19.6388L952.875 24.8482C945.319 31.7248 937.98 38.6968 931.955 47.9927L930.77 49.5112L930.447 49.9518L930.34 50.196C930.77 49.5111 929.479 51.5656 931.2 48.8262L931.093 49.0704L930.448 50.2437L927.761 54.8888C926.042 57.9201 923.89 61.3443 923.466 63.1967C922.61 65.4421 921.644 67.348 920.681 69.8375L918.011 77.9855C914.924 89.1535 912.489 100.608 911.136 111.664C909.89 122.475 908.539 133.823 908.152 142.972C907.661 152.95 906.951 162.541 906.347 171.596C904.922 189.609 904.668 203.477 903.963 213.943C903.365 224.166 902.854 230.349 902.854 230.349C902.854 230.349 902.071 225.636 901.049 216.742C900.352 207.698 898.012 195.604 897.71 179.163C897.344 171.138 897.081 162.286 896.925 152.897C896.549 143.121 897.037 132.56 898.061 120.777C899.084 108.994 900.967 95.5501 905.228 80.5285L908.963 68.7712C910.46 64.7688 912.497 60.1292 914.426 55.7339C916.462 50.8024 918.184 48.3549 919.795 45.2759L922.373 40.5831L923.018 39.4098L923.986 37.7959L924.202 37.5994L924.632 36.9146L926.355 34.4671C935.503 21.0087 945.111 12.4117 953.532 5.04114L959.58 0.123583L966.064 -4.31109C969.954 -6.9719 973.845 -9.63258 977.628 -12.0492C984.977 -16.9779 992.866 -22.252 999.68 -25.9597C1006.6 -29.9117 1012.98 -33.5184 1019.03 -36.9763C1031.04 -43.6481 1040.88 -48.355 1047.91 -52.2592C1054.72 -56.2589 1058.62 -58.044 1058.62 -58.044Z" fill="url(#paint17_linear_0_1)"/>
    <path d="M1089.48 -46.8299C1089.48 -46.8299 1085.27 -43.1447 1078.14 -37.5367C1070.9 -31.9765 1060.64 -23.3737 1048.43 -14.4622C1042.27 -9.88439 1035.58 -4.96142 1028.66 0.158144C1021.64 4.93806 1014.73 10.9333 1006.84 16.4992C999.495 22.3036 990.632 28.0239 983.941 34.4065C976.385 41.2831 969.264 48.3503 963.24 57.9382L960.872 61.2671C961.409 60.338 959.582 63.6134 959.045 64.5424C957.65 67.425 955.067 71.2423 954.535 73.3389C953.679 75.5843 952.715 77.7819 951.643 80.2238L948.866 88.616C945.67 99.7363 942.912 111.631 941.341 122.591C939.774 134.136 938.199 144.22 937.494 154.686C936.787 164.861 935.755 174.892 934.933 183.851C933.076 202.258 932.497 216.274 931.576 226.937C930.762 237.356 930.143 243.491 930.143 243.491C930.143 243.491 929.467 238.535 928.661 229.444C928.18 220.204 926.163 207.669 926.293 190.834C926.142 182.613 926.096 173.565 926.262 163.735C926.105 154.347 926.912 142.469 928.262 130.829C929.61 118.898 931.817 105.305 936.187 90.331L939.923 78.8654C941.637 74.6665 943.458 70.2235 945.28 66.0723C947.208 61.3851 948.716 59.426 950.432 55.8109C951.615 53.7086 951.399 53.9051 953.656 49.9448L956.992 45.0021C966.031 31.2041 975.744 22.0709 984.272 14.4562C986.54 12.5391 987.619 11.5568 990.967 8.94929L996.804 5.104C1000.69 2.44319 1004.48 0.0265168 1008.37 -2.6343C1015.72 -7.56301 1023.61 -12.8369 1030.42 -16.5446C1037.23 -20.2524 1043.72 -23.8114 1049.78 -27.2693C1061.78 -33.941 1071.63 -38.3561 1078.66 -41.9685C1085.58 -45.3366 1089.48 -46.8299 1089.48 -46.8299Z" fill="url(#paint18_linear_0_1)"/>
    <path d="M1118.39 -33.8475C1118.39 -33.8475 1114.29 -30.4064 1106.94 -24.6021C1099.81 -19.286 1089.34 -10.7787 1077.13 -1.86715C1065.03 7.09207 1050.33 17.2414 1035.31 27.8313C1027.86 33.2961 1020.29 39.0051 1012.85 45.9294C1005.51 52.9013 998.175 60.7489 992.151 70.3367C990.753 72.6354 984.515 82.7118 983.665 86.1248C981.519 90.4247 979.597 96.2796 977.673 101.843C974.37 113.207 971.287 125.251 969.501 136.407C967.715 147.564 965.823 159.257 964.897 169.044C963.866 179.367 962.617 189.595 961.58 198.751C959.182 217.502 958.28 231.96 957.251 242.575C956.221 253.19 955.386 259.522 955.386 259.522C955.386 259.522 954.926 254.369 954.227 245.034C954.068 235.353 952.159 222.574 952.83 205.394C953.002 196.733 953.171 187.487 953.446 177.706C953.61 167.293 954.638 156.386 956.309 144.014C957.981 131.642 960.406 118.144 964.884 103.218C967.447 95.606 969.795 88.1906 973.978 79.2512C975.906 74.5639 977.84 71.0443 979.452 68.2572L982.031 63.5644L983.32 61.218C985.256 57.9902 984.827 58.9669 985.687 57.5972C994.617 43.7515 1004 34.1833 1012.75 26.0802C1021.6 18.0248 1029.81 12.8939 1037.59 7.86421C1052.95 -1.41502 1066.57 -8.53863 1078.69 -14.8707C1090.69 -21.2506 1100.43 -25.4214 1107.46 -29.0337C1114.49 -32.3542 1118.39 -33.8475 1118.39 -33.8475Z" fill="url(#paint19_linear_0_1)"/>
    <path d="M1145.47 -19.047C1145.47 -19.047 1141.37 -15.6058 1134.02 -10.0933C1126.78 -4.825 1116.41 3.43814 1104.2 12.0577C1091.99 20.9692 1077.4 30.5823 1062.49 40.928C1047.69 51.6134 1031.71 64.6931 1019.34 84.3094C1017.72 87.0965 1011.92 96.7796 1010.85 100.389C1008.7 104.689 1006.67 110.788 1004.54 116.547C1001.02 128.108 997.825 140.104 995.607 151.654C994.66 157.355 993.605 163.007 992.658 168.708L991.397 176.6L990.463 184.636C989.216 195.156 987.751 205.58 986.498 214.932C983.775 233.832 982.658 248.486 981.305 259.542C980.059 270.354 979.224 276.686 979.224 276.686C979.224 276.686 978.764 271.532 978.497 261.804C978.555 251.928 976.968 238.708 977.962 221.087C978.35 212.229 978.735 202.787 979.333 192.565L979.728 184.875L980.55 176.208C981.064 170.608 982.116 164.372 982.953 158.331C984.949 145.811 987.698 132.164 992.285 117.286C994.957 109.722 997.305 102.306 1001.38 93.611C1005.67 83.8435 1007.5 81.1519 1012.87 71.8616C1021.69 57.9682 1031.19 47.8638 1040.04 39.5165C1048.99 31.2169 1057.21 26.0862 1065.1 20.8123C1080.56 11.5808 1094.19 4.74913 1106.3 -1.29106C1118.31 -7.37899 1128.16 -11.5024 1134.97 -14.6263C1141.47 -17.6015 1145.47 -19.047 1145.47 -19.047Z" fill="url(#paint20_linear_0_1)"/>
    <path d="M1170.71 -2.42766C1170.71 -2.42766 1166.5 0.965706 1159.26 6.23402C1152.02 11.5023 1141.65 19.4734 1129.33 27.7534C1117.12 36.0811 1102.75 45.7898 1087.51 56.2843C1080.06 61.7491 1072.39 67.7023 1064.94 74.9185C1057.71 82.2301 1050.27 90.3219 1044.36 100.541C1042.75 103.036 1037.05 113.059 1035.77 116.865C1033.62 121.457 1031.38 127.461 1029.35 133.268C1025.61 145.025 1022.2 157.218 1019.77 168.964C1018.61 174.861 1017.55 180.514 1016.39 186.411L1014.91 194.5L1013.76 202.732C1012.19 213.692 1010.62 224.069 1009.15 233.617C1006 252.911 1004.66 267.761 1002.98 278.965C1001.52 289.973 1000.47 296.502 1000.47 296.502C1000.47 296.502 1000.12 291.105 1000.07 281.18C1000.34 271.107 999.078 257.446 1000.5 239.433C1001.11 230.378 1001.71 220.74 1002.52 210.321L1003.13 202.434L1004.17 193.571C1004.69 187.971 1005.95 181.538 1007.01 175.302C1009.33 162.632 1012.29 148.789 1016.99 133.959C1019.55 126.639 1022.12 119.027 1026.08 110.576C1027.91 106.133 1029.62 102.809 1031.34 99.7781L1033.81 95.0374C1034.46 93.8642 1034.03 94.5492 1035.75 91.5179L1037.36 89.0227C1045.96 74.742 1055.67 64.4411 1064.52 55.8019C1073.48 47.2104 1081.91 41.8831 1089.8 36.6091C1105.47 27.1811 1119 20.8855 1131.11 14.8453C1143.12 9.04925 1152.86 5.17033 1159.78 2.09408C1166.71 -0.982166 1170.71 -2.42766 1170.71 -2.42766Z" fill="url(#paint21_linear_0_1)"/>
    <path d="M1194.12 16.0005C1194.12 16.0005 1189.91 19.3939 1182.57 24.6145C1175.32 29.5909 1164.85 37.5145 1152.52 45.5026C1140.21 54.0744 1125.5 62.7643 1110.59 73.4019C1095.68 84.0396 1079.81 98.0424 1067.44 118.535C1060.67 130.124 1056.38 139.891 1051.89 152.19C1047.94 164.144 1044.32 176.533 1041.67 188.476C1039.23 200.222 1036.37 212.361 1035.01 222.541C1033.33 233.453 1031.54 244.026 1029.86 253.771C1026.27 273.458 1024.72 288.505 1022.83 299.906C1021.15 311.11 1020.1 317.639 1020.1 317.639C1020.1 317.639 1019.96 312.045 1020.02 301.876C1020.51 291.606 1019.57 277.505 1021.32 259.051C1022.14 249.8 1022.95 239.965 1023.98 229.35C1024.9 218.104 1026.9 206.459 1029.22 193.497C1031.76 180.631 1035.05 166.639 1039.85 151.856C1044.77 137.413 1052.48 119.831 1060.23 106.92C1068.94 92.9792 1078.42 81.7073 1087.49 72.8716C1096.55 64.3278 1105.09 58.4645 1113.09 53.2383C1129.09 43.3697 1142.51 37.6102 1154.62 32.1538C1166.63 26.6496 1176.38 23.0625 1183.41 20.034C1190.23 17.2019 1194.12 16.0005 1194.12 16.0005Z" fill="url(#paint22_linear_0_1)"/>
    <path d="M1216.03 35.8094C1216.03 35.8094 1211.81 38.9109 1204.47 44.1315C1197.12 49.0602 1186.64 56.6919 1174.32 64.6799C1168.15 68.674 1161.34 72.9655 1154.32 77.4535C1147.29 81.6497 1139.73 86.7749 1132.38 91.9955C1117.47 102.925 1101.28 117.369 1089.02 138.2C1087.09 141.428 1081.71 151.01 1080.11 155.257C1077.64 160.289 1075.39 166.293 1073.04 172.541C1068.87 184.691 1064.92 197.229 1062.17 209.124C1059.41 221.019 1056.43 233.402 1054.75 243.731C1052.86 254.84 1050.85 265.609 1048.95 275.551C1044.93 295.63 1043.17 310.873 1041.06 322.471C1039.17 333.872 1037.9 340.597 1037.9 340.597C1037.9 340.597 1037.76 335.003 1038.03 324.638C1038.22 319.479 1038.41 313.153 1038.7 305.706C1038.77 298.457 1039.16 290.182 1040.41 280.538C1041.34 271.335 1042.37 261.012 1043.62 250.2C1044.75 238.757 1046.97 226.916 1049.61 213.806C1052.36 200.743 1055.87 186.555 1060.89 171.867C1063.67 164.351 1066.24 157.031 1070.2 148.58C1074.28 139.301 1076.21 136.073 1081.37 126.979C1089.87 112.651 1099.46 101.426 1108.52 92.2988C1117.58 83.1712 1126.23 77.6477 1134.34 72.1773C1142.44 66.9987 1149.8 63.2376 1156.72 60.1614C1163.65 57.0851 1170.14 54.1098 1176.09 51.4798C1188.1 46.2676 1197.95 42.7283 1204.99 39.6998C1212.13 37.0109 1216.03 35.8094 1216.03 35.8094Z" fill="url(#paint23_linear_0_1)"/>
    <path d="M1236.2 57.4813C1236.2 57.4813 1231.99 60.5827 1224.64 65.5114C1217.39 70.1959 1206.81 77.7798 1194.37 85.4282C1188.21 89.1304 1181.4 93.422 1174.27 97.8624C1167.24 101.767 1159.67 107.184 1152.22 112.357C1144.66 118.065 1136.88 124.263 1129.55 132.11C1122.21 139.958 1114.67 148.878 1108.76 159.681C1106.71 162.569 1101.88 172.098 1099.63 176.934C1097.16 182.259 1094.7 188.167 1092.45 194.462C1088.07 206.809 1084.01 219.299 1080.93 231.635C1077.96 243.726 1074.66 256.258 1072.87 266.831C1070.76 278.137 1068.54 289.103 1066.42 299.241C1062.08 319.469 1059.99 335.153 1057.88 346.75C1055.77 358.347 1054.51 365.072 1054.51 365.072C1054.51 365.072 1054.59 359.282 1054.96 348.673C1055.26 343.27 1055.55 336.699 1055.95 329.301C1056.24 321.854 1056.73 313.336 1058.09 303.74C1059.13 294.292 1060.49 283.82 1061.95 272.812C1063.3 261.173 1065.73 249.135 1068.59 235.828C1071.56 222.569 1075.28 208.476 1080.52 193.592C1083.08 186.272 1086.19 178.607 1089.94 170.353C1091.76 165.91 1093.27 163.367 1095.09 159.799L1097.67 154.814C1099.5 151.539 1099.93 150.854 1101.22 148.8C1109.6 134.131 1119.41 122.711 1128.37 113.535C1137.64 103.92 1146.18 98.3483 1154.39 92.6337C1170.71 82.0325 1184.36 77.5358 1196.58 72.1272C1208.7 66.9627 1218.55 63.7152 1225.48 61.2228C1232.3 58.3907 1236.2 57.4813 1236.2 57.4813Z" fill="url(#paint24_linear_0_1)"/>
    <path d="M1254.86 80.5215C1254.86 80.5215 1250.54 83.5751 1243.19 88.2119C1235.84 92.8487 1225.36 99.3128 1212.82 107.205C1206.65 110.908 1199.84 115.199 1192.71 119.348C1185.79 123.3 1178 128.329 1170.44 134.038C1155.53 145.26 1138.91 160.68 1126.55 182.632L1124.19 186.544L1123.65 187.473C1124.3 186.3 1123.44 187.962 1123.44 187.962L1122.26 190.356C1120.54 193.679 1118.82 197.002 1117.32 200.129C1114.85 205.745 1112.28 211.314 1109.93 217.853C1105.33 230.397 1101.06 243.083 1097.76 255.615C1094.46 267.856 1091.05 280.632 1089.05 291.109C1086.72 302.611 1084.28 313.774 1082.17 323.912C1077.39 344.533 1075.09 360.413 1072.76 372.207C1070.55 384.049 1069.06 390.678 1069.06 390.678C1069.06 390.678 1069.25 384.644 1069.85 373.838C1070.14 368.435 1070.65 361.668 1071.15 354.025C1071.55 346.335 1072.26 337.62 1073.84 327.827C1075.09 318.183 1076.55 307.467 1078.23 296.263C1079.9 284.183 1082.44 272.192 1085.74 258.492C1088.92 245.037 1092.86 230.748 1098.31 215.959C1100.88 208.639 1104.2 200.777 1107.85 192.767C1109.56 189.152 1111.17 186.073 1112.78 182.702L1113.96 180.308L1114.93 178.402L1115.68 176.985L1118.8 171.655C1127.18 157.279 1136.77 145.179 1146.05 135.854C1155.33 126.239 1164.08 119.887 1172.51 114.268C1180.94 108.357 1188.19 105.132 1195.33 102.151C1202.36 99.1222 1209.07 96.2424 1215.13 93.6601C1227.36 88.5434 1237 86.0761 1244.14 83.3872C1250.97 81.4308 1254.86 80.5215 1254.86 80.5215Z" fill="url(#paint25_linear_0_1)"/>
    <path d="M1271.91 105.19C1271.91 105.19 1267.59 108.244 1260.24 112.589C1252.88 116.934 1242.29 123.35 1229.64 130.903C1223.37 134.558 1216.67 138.605 1209.42 142.997C1202.5 146.949 1194.5 151.884 1187.05 157.641C1179.49 163.349 1171.61 170.083 1164.06 178.419C1156.51 186.755 1149.07 196.014 1142.84 207.258C1140.58 210.927 1135.53 220.36 1133.39 225.244C1130.71 230.765 1128.14 236.917 1125.57 243.361C1120.75 256.101 1116.26 268.984 1112.86 281.468C1109.45 293.953 1105.72 306.878 1103.5 317.552C1100.85 329.494 1098.31 340.609 1095.97 350.943C1090.98 371.761 1088.46 387.838 1085.81 400.072C1083.49 411.866 1081.79 418.984 1081.79 418.984C1081.79 418.984 1081.98 412.95 1082.89 401.703C1083.41 396.104 1083.92 389.337 1084.53 381.45C1085.03 373.807 1085.85 364.848 1087.53 354.811C1089.11 344.726 1090.79 334.106 1092.57 322.657C1094.46 310.381 1097.33 297.95 1100.73 284.298C1104.24 270.693 1108.39 256.208 1114.06 241.223C1116.95 233.754 1120.06 226.089 1123.81 218.126C1127.89 209.431 1130.03 205.423 1134.98 196.525C1143.36 181.857 1153.17 169.853 1162.34 160.189C1171.72 150.037 1180.58 143.733 1189.12 137.87C1197.76 131.762 1205.01 128.537 1212.26 125.604C1219.4 122.623 1226 119.988 1232.17 117.453C1244.51 112.384 1254.15 110.501 1261.19 108.056C1267.9 106.052 1271.91 105.19 1271.91 105.19Z" fill="url(#paint26_linear_0_1)"/>
    <path d="M1287.55 131.281C1287.55 131.281 1283.23 134.043 1275.77 138.34C1268.3 142.637 1257.71 148.762 1244.95 155.975C1238.68 159.629 1231.76 163.581 1224.62 167.73C1217.59 171.342 1209.7 176.908 1202.14 182.325C1186.69 194.183 1170.29 210.575 1157.29 233.116C1150.19 245.438 1144.83 256.771 1139.69 269.66C1134.66 282.596 1130.17 295.479 1126.33 308.356C1124.52 314.843 1122.71 321.037 1121.01 327.279L1118.67 335.862L1116.54 344.833C1113.57 356.924 1110.92 368.283 1108.37 378.814C1103.05 400.072 1100.32 416.346 1097.56 428.533C1095.02 440.523 1093.32 447.641 1093.32 447.641C1093.32 447.641 1093.72 441.41 1094.75 429.919C1095.26 424.32 1095.99 417.356 1096.81 409.273C1097.42 401.386 1098.35 392.183 1100.36 381.997C1102.15 371.716 1103.94 360.851 1105.94 349.206L1107.52 340.289C1108.26 336.244 1109 333.659 1109.74 330.198C1111.12 323.813 1112.93 317.035 1114.63 310.209C1118.46 296.456 1122.83 281.774 1128.5 266.789C1134.28 251.851 1142.01 235.437 1149.75 221.942C1158.35 207.37 1167.93 194.978 1177.21 185.07C1186.7 174.966 1195.67 168.126 1204.2 162.262C1212.96 156.495 1220.42 152.489 1227.67 149.848C1234.82 147.159 1241.64 144.327 1247.7 142.037C1260.14 137.015 1269.79 135.424 1276.82 133.271C1283.65 131.898 1287.55 131.281 1287.55 131.281Z" fill="url(#paint27_linear_0_1)"/>
    <path d="M1301.68 158.743C1301.68 158.743 1297.25 161.457 1289.9 165.51C1282.33 169.759 1271.62 175.252 1258.97 182.513C1252.59 186.12 1245.78 189.828 1238.53 193.928C1231.5 197.249 1223.4 203.303 1215.83 208.72C1207.95 214.87 1200.07 222.187 1192.2 230.672C1184.54 239.252 1176.79 250.12 1170.55 260.488C1162.49 274.423 1157.88 284.632 1151.99 298.354C1146.74 311.486 1142.04 324.566 1137.98 337.64C1136.06 344.078 1134.14 350.517 1132.33 356.711C1131.59 359.588 1130.31 363.394 1129.88 365.539L1127.65 374.753C1124.57 387.089 1121.59 398.596 1119.05 409.127C1113.41 430.534 1110.46 447.296 1107.49 459.679C1104.73 471.866 1102.92 479.228 1102.92 479.228C1102.92 479.228 1103.43 472.753 1104.57 461.31C1105.19 455.466 1106.02 448.259 1106.95 440.223C1107.78 432.14 1108.81 422.692 1110.93 412.262C1112.83 402.029 1114.94 390.724 1117.16 378.882L1118.95 369.768C1119.69 365.724 1120.44 363.139 1121.18 359.678C1122.66 353.049 1124.58 346.318 1126.49 339.296C1130.54 325.346 1134.91 310.664 1141.02 295.578C1146.69 281.177 1155.17 263.054 1162.26 251.024C1171.51 235.57 1180.56 223.523 1190.26 212.931C1199.75 202.826 1208.93 195.498 1217.58 189.39C1226.33 183.622 1234.12 179.176 1241.37 176.827C1248.52 174.138 1255.33 171.598 1261.72 169.159C1274.27 164.185 1283.92 163.177 1290.96 161.024C1297.78 159.36 1301.68 158.743 1301.68 158.743Z" fill="url(#paint28_linear_0_1)"/>
    <path d="M1314.52 187.677C1314.52 187.677 1310.09 190.391 1302.62 194.105C1295.16 198.11 1284.24 203.216 1271.48 210.429C1265.1 214.036 1258.17 217.696 1250.82 221.749C1243.68 225.021 1235.58 231.076 1227.91 236.737C1220.02 242.887 1211.93 250.692 1204.06 259.177C1196.51 267.513 1188 279.798 1182.41 288.993C1175.22 302.726 1167.48 316.513 1163.09 328.568C1157.62 340.438 1153.14 354.78 1148.55 367.616C1146.52 374.298 1144.6 380.737 1142.57 387.128L1141.08 392.006C1140.87 392.494 1140.44 394.055 1140.55 393.811L1139.91 396.152L1137.46 405.563C1134.27 417.851 1131.19 429.602 1128.21 440.526C1122.25 462.374 1118.97 479.284 1115.89 491.912C1113.03 504.343 1111.11 511.657 1111.11 511.657C1111.11 511.657 1111.62 505.182 1113.08 493.298C1113.81 487.211 1114.75 480.051 1115.79 471.771C1116.72 463.443 1117.87 454.043 1120.2 443.417C1122.2 432.94 1124.53 421.437 1126.96 409.399L1128.76 400.286L1129.29 397.897L1130.14 394.776L1131.42 389.803C1133.23 383.025 1135.03 376.246 1136.95 369.224C1141.86 354.78 1145.37 340.592 1152.66 324.28C1159.19 307.341 1166.39 294.483 1173.48 280.702C1183.47 263.831 1192.09 252.761 1201.9 241.632C1211.5 231.284 1220.79 223.711 1229.43 217.603C1238.41 211.639 1246.3 206.949 1253.66 204.647C1260.91 202.006 1267.84 199.514 1274.23 197.075C1287 192.196 1296.43 191.677 1303.58 189.864C1310.51 188.247 1314.52 187.677 1314.52 187.677Z" fill="url(#paint29_linear_0_1)"/>
    <defs>
    <linearGradient id="paint0_linear_0_1" x1="35.7018" y1="312.762" x2="149.752" y2="52.9474" gradientUnits="userSpaceOnUse">
    <stop stop-color="#DBE7FB"/>
    <stop offset="1" stop-color="#DBE7FB" stop-opacity="0"/>
    </linearGradient>
    <linearGradient id="paint1_linear_0_1" x1="106.354" y1="287.863" x2="221.047" y2="26.5835" gradientUnits="userSpaceOnUse">
    <stop stop-color="#DBE7FB"/>
    <stop offset="1" stop-color="#DBE7FB" stop-opacity="0"/>
    </linearGradient>
    <linearGradient id="paint2_linear_0_1" x1="174.399" y1="265.598" x2="289.735" y2="2.85371" gradientUnits="userSpaceOnUse">
    <stop stop-color="#DBE7FB"/>
    <stop offset="1" stop-color="#DBE7FB" stop-opacity="0"/>
    </linearGradient>
    <linearGradient id="paint3_linear_0_1" x1="239.697" y1="245.918" x2="355.676" y2="-18.2921" gradientUnits="userSpaceOnUse">
    <stop stop-color="#DBE7FB"/>
    <stop offset="1" stop-color="#DBE7FB" stop-opacity="0"/>
    </linearGradient>
    <linearGradient id="paint4_linear_0_1" x1="302.439" y1="228.606" x2="419.062" y2="-37.0689" gradientUnits="userSpaceOnUse">
    <stop stop-color="#DBE7FB"/>
    <stop offset="1" stop-color="#DBE7FB" stop-opacity="0"/>
    </linearGradient>
    <linearGradient id="paint5_linear_0_1" x1="361.998" y1="214.269" x2="479.479" y2="-53.3592" gradientUnits="userSpaceOnUse">
    <stop stop-color="#DBE7FB"/>
    <stop offset="1" stop-color="#DBE7FB" stop-opacity="0"/>
    </linearGradient>
    <linearGradient id="paint6_linear_0_1" x1="419.142" y1="202.37" x2="537.48" y2="-67.2117" gradientUnits="userSpaceOnUse">
    <stop stop-color="#DBE7FB"/>
    <stop offset="1" stop-color="#DBE7FB" stop-opacity="0"/>
    </linearGradient>
    <linearGradient id="paint7_linear_0_1" x1="474.117" y1="192.424" x2="593.098" y2="-78.6229" gradientUnits="userSpaceOnUse">
    <stop stop-color="#DBE7FB"/>
    <stop offset="1" stop-color="#DBE7FB" stop-opacity="0"/>
    </linearGradient>
    <linearGradient id="paint8_linear_0_1" x1="525.731" y1="185.953" x2="645.998" y2="-88.0237" gradientUnits="userSpaceOnUse">
    <stop stop-color="#DBE7FB"/>
    <stop offset="1" stop-color="#DBE7FB" stop-opacity="0"/>
    </linearGradient>
    <linearGradient id="paint9_linear_0_1" x1="575.563" y1="180.745" x2="696.581" y2="-94.9417" gradientUnits="userSpaceOnUse">
    <stop stop-color="#DBE7FB"/>
    <stop offset="1" stop-color="#DBE7FB" stop-opacity="0"/>
    </linearGradient>
    <linearGradient id="paint10_linear_0_1" x1="622.517" y1="178.639" x2="744.714" y2="-99.7342" gradientUnits="userSpaceOnUse">
    <stop stop-color="#DBE7FB"/>
    <stop offset="1" stop-color="#DBE7FB" stop-opacity="0"/>
    </linearGradient>
    <linearGradient id="paint11_linear_0_1" x1="666.977" y1="178.94" x2="790.46" y2="-102.363" gradientUnits="userSpaceOnUse">
    <stop stop-color="#DBE7FB"/>
    <stop offset="1" stop-color="#DBE7FB" stop-opacity="0"/>
    </linearGradient>
    <linearGradient id="paint12_linear_0_1" x1="709.346" y1="180.937" x2="834.009" y2="-103.052" gradientUnits="userSpaceOnUse">
    <stop stop-color="#DBE7FB"/>
    <stop offset="1" stop-color="#DBE7FB" stop-opacity="0"/>
    </linearGradient>
    <linearGradient id="paint13_linear_0_1" x1="749.503" y1="185.166" x2="875.344" y2="-101.509" gradientUnits="userSpaceOnUse">
    <stop stop-color="#DBE7FB"/>
    <stop offset="1" stop-color="#DBE7FB" stop-opacity="0"/>
    </linearGradient>
    <linearGradient id="paint14_linear_0_1" x1="787.431" y1="191.326" x2="914.452" y2="-98.0347" gradientUnits="userSpaceOnUse">
    <stop stop-color="#DBE7FB"/>
    <stop offset="1" stop-color="#DBE7FB" stop-opacity="0"/>
    </linearGradient>
    <linearGradient id="paint15_linear_0_1" x1="822.848" y1="200.467" x2="951.37" y2="-92.3121" gradientUnits="userSpaceOnUse">
    <stop stop-color="#DBE7FB"/>
    <stop offset="1" stop-color="#DBE7FB" stop-opacity="0"/>
    </linearGradient>
    <linearGradient id="paint16_linear_0_1" x1="856.569" y1="210.031" x2="986.055" y2="-84.9463" gradientUnits="userSpaceOnUse">
    <stop stop-color="#DBE7FB"/>
    <stop offset="1" stop-color="#DBE7FB" stop-opacity="0"/>
    </linearGradient>
    <linearGradient id="paint17_linear_0_1" x1="887.793" y1="223.737" x2="1019.1" y2="-75.3909" gradientUnits="userSpaceOnUse">
    <stop stop-color="#DBE7FB"/>
    <stop offset="1" stop-color="#DBE7FB" stop-opacity="0"/>
    </linearGradient>
    <linearGradient id="paint18_linear_0_1" x1="917.202" y1="237.81" x2="1049.8" y2="-64.2484" gradientUnits="userSpaceOnUse">
    <stop stop-color="#DBE7FB"/>
    <stop offset="1" stop-color="#DBE7FB" stop-opacity="0"/>
    </linearGradient>
    <linearGradient id="paint19_linear_0_1" x1="944.335" y1="254.671" x2="1078.64" y2="-51.295" gradientUnits="userSpaceOnUse">
    <stop stop-color="#DBE7FB"/>
    <stop offset="1" stop-color="#DBE7FB" stop-opacity="0"/>
    </linearGradient>
    <linearGradient id="paint20_linear_0_1" x1="970.075" y1="272.669" x2="1105.78" y2="-36.4707" gradientUnits="userSpaceOnUse">
    <stop stop-color="#DBE7FB"/>
    <stop offset="1" stop-color="#DBE7FB" stop-opacity="0"/>
    </linearGradient>
    <linearGradient id="paint21_linear_0_1" x1="993.332" y1="293.367" x2="1130.86" y2="-19.924" gradientUnits="userSpaceOnUse">
    <stop stop-color="#DBE7FB"/>
    <stop offset="1" stop-color="#DBE7FB" stop-opacity="0"/>
    </linearGradient>
    <linearGradient id="paint22_linear_0_1" x1="1014.9" y1="315.355" x2="1154.03" y2="-1.59876" gradientUnits="userSpaceOnUse">
    <stop stop-color="#DBE7FB"/>
    <stop offset="1" stop-color="#DBE7FB" stop-opacity="0"/>
    </linearGradient>
    <linearGradient id="paint23_linear_0_1" x1="1034.67" y1="339.178" x2="1175.62" y2="18.0732" gradientUnits="userSpaceOnUse">
    <stop stop-color="#DBE7FB"/>
    <stop offset="1" stop-color="#DBE7FB" stop-opacity="0"/>
    </linearGradient>
    <linearGradient id="paint24_linear_0_1" x1="1053.08" y1="364.446" x2="1195.64" y2="39.6783" gradientUnits="userSpaceOnUse">
    <stop stop-color="#DBE7FB"/>
    <stop offset="1" stop-color="#DBE7FB" stop-opacity="0"/>
    </linearGradient>
    <linearGradient id="paint25_linear_0_1" x1="1069.7" y1="390.956" x2="1213.87" y2="62.5253" gradientUnits="userSpaceOnUse">
    <stop stop-color="#DBE7FB"/>
    <stop offset="1" stop-color="#DBE7FB" stop-opacity="0"/>
    </linearGradient>
    <linearGradient id="paint26_linear_0_1" x1="1084.36" y1="420.11" x2="1230.56" y2="87.0401" gradientUnits="userSpaceOnUse">
    <stop stop-color="#DBE7FB"/>
    <stop offset="1" stop-color="#DBE7FB" stop-opacity="0"/>
    </linearGradient>
    <linearGradient id="paint27_linear_0_1" x1="1097.85" y1="449.628" x2="1245.66" y2="112.895" gradientUnits="userSpaceOnUse">
    <stop stop-color="#DBE7FB"/>
    <stop offset="1" stop-color="#DBE7FB" stop-opacity="0"/>
    </linearGradient>
    <linearGradient id="paint28_linear_0_1" x1="1109.33" y1="482.042" x2="1259.4" y2="140.181" gradientUnits="userSpaceOnUse">
    <stop stop-color="#DBE7FB"/>
    <stop offset="1" stop-color="#DBE7FB" stop-opacity="0"/>
    </linearGradient>
    <linearGradient id="paint29_linear_0_1" x1="1119.59" y1="515.376" x2="1271.69" y2="168.876" gradientUnits="userSpaceOnUse">
    <stop stop-color="#DBE7FB"/>
    <stop offset="1" stop-color="#DBE7FB" stop-opacity="0"/>
    </linearGradient>
    </defs>
</svg>