<svg width="10" height="10" viewBox="0 0 10 10" fill="none" xmlns="http://www.w3.org/2000/svg">
    <mask id="path-1-inside-1_138_3912" fill="white">
    <path d="M3.5777 9.16664C3.4145 9.16742 3.25752 9.09076 3.14033 8.95306L0.18872 5.4812C0.129889 5.41158 0.082947 5.32859 0.0505741 5.23698C0.0182012 5.14537 0.00103144 5.04692 4.5112e-05 4.94726C-0.00194686 4.746 0.0621007 4.55201 0.178098 4.40799C0.294096 4.26396 0.452541 4.1817 0.618578 4.17928C0.784615 4.17687 0.944643 4.2545 1.06346 4.39511L3.5802 7.35422L8.9361 1.04898C9.05508 0.908375 9.21526 0.830818 9.38142 0.833374C9.54757 0.835931 9.70608 0.918392 9.82208 1.06262C9.93808 1.20684 10.0021 1.40102 9.99995 1.60243C9.99784 1.80384 9.92981 1.99598 9.81083 2.13659L4.01507 8.95306C3.89789 9.09076 3.74091 9.16742 3.5777 9.16664Z"/>
    </mask>
    <path d="M3.5777 9.16664C3.4145 9.16742 3.25752 9.09076 3.14033 8.95306L0.18872 5.4812C0.129889 5.41158 0.082947 5.32859 0.0505741 5.23698C0.0182012 5.14537 0.00103144 5.04692 4.5112e-05 4.94726C-0.00194686 4.746 0.0621007 4.55201 0.178098 4.40799C0.294096 4.26396 0.452541 4.1817 0.618578 4.17928C0.784615 4.17687 0.944643 4.2545 1.06346 4.39511L3.5802 7.35422L8.9361 1.04898C9.05508 0.908375 9.21526 0.830818 9.38142 0.833374C9.54757 0.835931 9.70608 0.918392 9.82208 1.06262C9.93808 1.20684 10.0021 1.40102 9.99995 1.60243C9.99784 1.80384 9.92981 1.99598 9.81083 2.13659L4.01507 8.95306C3.89789 9.09076 3.74091 9.16742 3.5777 9.16664Z" fill="#1F2A37"/>
    <path d="M3.5777 9.16664L3.58488 7.66666L3.5777 7.66662L3.57052 7.66666L3.5777 9.16664ZM3.14033 8.95306L1.99751 9.92463L1.99797 9.92517L3.14033 8.95306ZM0.18872 5.4812L-0.957019 6.44935L-0.954101 6.45278L0.18872 5.4812ZM4.5112e-05 4.94726L-1.49988 4.96211L4.5112e-05 4.94726ZM1.06346 4.39511L-0.0822825 5.36326L-0.0791645 5.36692L1.06346 4.39511ZM3.5802 7.35422L2.43758 8.32603L3.58092 9.67033L4.72343 8.32532L3.5802 7.35422ZM8.9361 1.04898L10.0793 2.02008L10.0812 2.01791L8.9361 1.04898ZM9.81083 2.13659L10.9536 3.10824L10.9559 3.10552L9.81083 2.13659ZM4.01507 8.95306L5.15744 9.92517L5.15783 9.9247L4.01507 8.95306ZM3.57052 7.66666C3.90071 7.66508 4.14814 7.82281 4.2827 7.98095L1.99797 9.92517C2.3669 10.3587 2.92828 10.6698 3.58488 10.6666L3.57052 7.66666ZM4.28316 7.98148L1.33154 4.50963L-0.954101 6.45278L1.99751 9.92463L4.28316 7.98148ZM1.33445 4.51306C1.40028 4.59097 1.44081 4.66913 1.46487 4.73722L-1.36372 5.73674C-1.27492 5.98806 -1.1405 6.23219 -0.957014 6.44934L1.33445 4.51306ZM1.46487 4.73722C1.48898 4.80543 1.49937 4.87113 1.49997 4.93242L-1.49988 4.96211C-1.4973 5.22271 -1.45257 5.4853 -1.36372 5.73674L1.46487 4.73722ZM1.49997 4.93242C1.50109 5.04564 1.468 5.19779 1.34632 5.34887L-0.990121 3.4671C-1.3438 3.90624 -1.50499 4.44635 -1.49988 4.96211L1.49997 4.93242ZM1.34632 5.34887C1.2183 5.50782 0.974902 5.67426 0.64039 5.67912L0.596766 2.67944C-0.0698197 2.68913 -0.63011 3.02011 -0.990121 3.4671L1.34632 5.34887ZM0.64039 5.67912C0.304767 5.684 0.0531651 5.52354 -0.0822766 5.36325L2.20919 3.42697C1.83612 2.98547 1.26446 2.66973 0.596766 2.67944L0.64039 5.67912ZM-0.0791645 5.36692L2.43758 8.32603L4.72282 6.38241L2.20608 3.4233L-0.0791645 5.36692ZM4.72343 8.32532L10.0793 2.02008L7.79287 0.0778863L2.43698 6.38312L4.72343 8.32532ZM10.0812 2.01791C9.94559 2.17813 9.69386 2.33836 9.35834 2.3332L9.4045 -0.666448C8.73666 -0.676724 8.16456 -0.361384 7.79103 0.0800585L10.0812 2.01791ZM9.35834 2.3332C9.02399 2.32805 8.78094 2.16151 8.65322 2.00271L10.9909 0.122529C10.6312 -0.324725 10.0712 -0.65619 9.4045 -0.666448L9.35834 2.3332ZM8.65322 2.00271C8.53181 1.85175 8.49885 1.6998 8.50003 1.58672L11.4999 1.61813C11.5053 1.10224 11.3443 0.561938 10.9909 0.122529L8.65322 2.00271ZM8.50003 1.58672C8.50122 1.47374 8.53745 1.31931 8.66577 1.16766L10.9559 3.10552C11.3222 2.67265 11.4945 2.13393 11.4999 1.61813L8.50003 1.58672ZM8.66807 1.16495L2.87231 7.98141L5.15783 9.9247L10.9536 3.10823L8.66807 1.16495ZM2.87271 7.98095C3.00727 7.82281 3.25469 7.66508 3.58488 7.66666L3.57052 10.6666C4.22713 10.6698 4.78851 10.3587 5.15744 9.92517L2.87271 7.98095Z" fill="white" mask="url(#path-1-inside-1_138_3912)"/>
</svg>