<svg width="12" height="12" viewBox="0 0 12 12" fill="none" xmlns="http://www.w3.org/2000/svg">
    <path d="M10.8889 2.52632H8.44444V1.26316C8.44444 0.928148 8.31567 0.606858 8.08646 0.36997C7.85725 0.133082 7.54638 0 7.22222 0H4.77778C4.45362 0 4.14275 0.133082 3.91354 0.36997C3.68433 0.606858 3.55556 0.928148 3.55556 1.26316V2.52632H1.11111C0.949034 2.52632 0.793596 2.59286 0.67899 2.7113C0.564385 2.82975 0.5 2.99039 0.5 3.15789C0.5 3.3254 0.564385 3.48604 0.67899 3.60449C0.793596 3.72293 0.949034 3.78947 1.11111 3.78947H1.72222V10.7368C1.72222 11.0719 1.85099 11.3931 2.0802 11.63C2.30941 11.8669 2.62029 12 2.94444 12H9.05556C9.37971 12 9.69059 11.8669 9.9198 11.63C10.149 11.3931 10.2778 11.0719 10.2778 10.7368V3.78947H10.8889C11.051 3.78947 11.2064 3.72293 11.321 3.60449C11.4356 3.48604 11.5 3.3254 11.5 3.15789C11.5 2.99039 11.4356 2.82975 11.321 2.7113C11.2064 2.59286 11.051 2.52632 10.8889 2.52632ZM4.77778 1.26316H7.22222V2.52632H4.77778V1.26316ZM5.38889 9.47368C5.38889 9.64119 5.3245 9.80183 5.2099 9.92028C5.09529 10.0387 4.93985 10.1053 4.77778 10.1053C4.6157 10.1053 4.46026 10.0387 4.34566 9.92028C4.23105 9.80183 4.16667 9.64119 4.16667 9.47368V5.05263C4.16667 4.88513 4.23105 4.72448 4.34566 4.60604C4.46026 4.48759 4.6157 4.42105 4.77778 4.42105C4.93985 4.42105 5.09529 4.48759 5.2099 4.60604C5.3245 4.72448 5.38889 4.88513 5.38889 5.05263V9.47368ZM7.83333 9.47368C7.83333 9.64119 7.76895 9.80183 7.65434 9.92028C7.53974 10.0387 7.3843 10.1053 7.22222 10.1053C7.06015 10.1053 6.90471 10.0387 6.7901 9.92028C6.6755 9.80183 6.61111 9.64119 6.61111 9.47368V5.05263C6.61111 4.88513 6.6755 4.72448 6.7901 4.60604C6.90471 4.48759 7.06015 4.42105 7.22222 4.42105C7.3843 4.42105 7.53974 4.48759 7.65434 4.60604C7.76895 4.72448 7.83333 4.88513 7.83333 5.05263V9.47368Z" fill="#E02424"/>
</svg>