<svg width="20" height="21" viewBox="0 0 20 21" fill="none" xmlns="http://www.w3.org/2000/svg">
    <g clip-path="url(#clip0_69_5456)">
    <path d="M6.87511 5.5V0.63C6.36683 0.764979 5.90311 1.02286 5.52828 1.379L2.58253 4.207C2.2123 4.56739 1.9438 5.01238 1.80234 5.5H6.87511Z" fill="#9CA3AF"/>
    <path d="M16.3186 0.5H8.95838V5.5C8.95838 6.03043 8.7389 6.53914 8.34821 6.91421C7.95752 7.28929 7.42763 7.5 6.87511 7.5H1.66693V18.5C1.65857 19.0215 1.86594 19.5248 2.24358 19.8998C2.62121 20.2747 3.1383 20.4905 3.68145 20.5H16.3186C16.8617 20.4905 17.3788 20.2747 17.7565 19.8998C18.1341 19.5248 18.3415 19.0215 18.3331 18.5V2.5C18.3415 1.97853 18.1341 1.47515 17.7565 1.10024C17.3788 0.725324 16.8617 0.509469 16.3186 0.5ZM14.1666 6.5H12.0833V8.5H14.1666V10.5H12.0833V12.5H14.1666V14.5H12.0833V16.5H14.1666V18.5H12.0833V16.5H10V14.5H12.0833V12.5H10V10.5H12.0833V8.5H10V6.5H12.0833V4.5H10V2.5H12.0833V4.5H14.1666V6.5Z" fill="#9CA3AF"/>
    </g>
    <defs>
    <clipPath id="clip0_69_5456">
    <rect width="20" height="20" fill="white" transform="translate(0 0.5)"/>
    </clipPath>
    </defs>
</svg>